<svg xmlns="http://www.w3.org/2000/svg" width="1700" height="600" viewBox="0 0 1700 600" font-family="Arial, Helvetica, sans-serif">
<defs><marker id="ar" viewBox="0 0 10 10" refX="9" refY="5" markerWidth="7" markerHeight="7" orient="auto-start-reverse"><path d="M0 0L10 5L0 10z" fill="#444"/></marker></defs>
<rect width="1700" height="600" fill="#fff"/>
<text x="14" y="22" font-size="15" font-weight="bold" fill="#1F3A5F">Mizan - To-Be Reconciliation Process (BPMN 2.0, automated)</text>
<rect x="0" y="40" width="1700" height="80" fill="#FAFAFA" stroke="#999"/>
<rect x="0" y="40" width="26" height="80" fill="#E8EEF5" stroke="#999"/>
<text transform="translate(17,80.0) rotate(-90)" text-anchor="middle" font-size="11" font-weight="bold" fill="#1F3A5F">Gateway</text>
<rect x="0" y="120" width="1700" height="250" fill="#FAFAFA" stroke="#999"/>
<rect x="0" y="120" width="26" height="250" fill="#E8EEF5" stroke="#999"/>
<text transform="translate(17,245.0) rotate(-90)" text-anchor="middle" font-size="11" font-weight="bold" fill="#1F3A5F">Mizan Services (automated)</text>
<rect x="0" y="370" width="1700" height="110" fill="#FAFAFA" stroke="#999"/>
<rect x="0" y="370" width="26" height="110" fill="#E8EEF5" stroke="#999"/>
<text transform="translate(17,425.0) rotate(-90)" text-anchor="middle" font-size="11" font-weight="bold" fill="#1F3A5F">Finance Team</text>
<rect x="0" y="480" width="1700" height="100" fill="#FAFAFA" stroke="#999"/>
<rect x="0" y="480" width="26" height="100" fill="#E8EEF5" stroke="#999"/>
<text transform="translate(17,530.0) rotate(-90)" text-anchor="middle" font-size="11" font-weight="bold" fill="#1F3A5F">ERP (Ledger)</text>
<polyline points="72,114 72,193 140,193" fill="none" stroke="#444" stroke-width="1.3"  marker-end="url(#ar)"/>
<polyline points="300,193 340,193" fill="none" stroke="#444" stroke-width="1.3"  marker-end="url(#ar)"/>
<polyline points="480,193 520,193" fill="none" stroke="#444" stroke-width="1.3"  marker-end="url(#ar)"/>
<polyline points="670,193 710,193" fill="none" stroke="#444" stroke-width="1.3"  marker-end="url(#ar)"/>
<polyline points="755,160 755,158 840,158" fill="none" stroke="#444" stroke-width="1.3"  marker-end="url(#ar)"/>
<rect x="741" y="145" width="28" height="13" fill="#ffffff"/>
<text x="755" y="155" font-size="9.5" fill="#B85450" text-anchor="middle" font-weight="bold">none</text>
<polyline points="970,158 1010,158" fill="none" stroke="#444" stroke-width="1.3"  marker-end="url(#ar)"/>
<polyline points="800,193 820,193 820,266 840,266" fill="none" stroke="#444" stroke-width="1.3"  marker-end="url(#ar)"/>
<rect x="809" y="180" width="22" height="13" fill="#ffffff"/>
<text x="820" y="190" font-size="9.5" fill="#B85450" text-anchor="middle" font-weight="bold">yes</text>
<polyline points="970,266 1000,266" fill="none" stroke="#444" stroke-width="1.3"  marker-end="url(#ar)"/>
<polyline points="1045,233 1045,226 1130,226" fill="none" stroke="#444" stroke-width="1.3"  marker-end="url(#ar)"/>
<rect x="1037" y="213" width="17" height="13" fill="#ffffff"/>
<text x="1045" y="223" font-size="9.5" fill="#B85450" text-anchor="middle" font-weight="bold">no</text>
<polyline points="1045,299 1045,400" fill="none" stroke="#444" stroke-width="1.3"  marker-end="url(#ar)"/>
<rect x="1034" y="336" width="22" height="13" fill="#ffffff"/>
<text x="1045" y="346" font-size="9.5" fill="#B85450" text-anchor="middle" font-weight="bold">yes</text>
<polyline points="1270,226 1405,226 1405,505" fill="none" stroke="#444" stroke-width="1.3"  marker-end="url(#ar)"/>
<polyline points="1120,433 1405,433 1405,505" fill="none" stroke="#444" stroke-width="1.3"  marker-end="url(#ar)"/>
<polyline points="1480,535 1560,535" fill="none" stroke="#444" stroke-width="1.3"  marker-end="url(#ar)"/>
<polyline points="220,160 220,110" fill="none" stroke="#444" stroke-width="1.3" stroke-dasharray="5 4" marker-end="url(#ar)"/>
<rect x="195" y="119" width="49" height="13" fill="#ffffff"/>
<text x="220" y="129" font-size="9.5" fill="#B85450" text-anchor="middle" font-weight="bold">on error</text>
<ellipse cx="72.0" cy="82.0" rx="32.0" ry="32.0" fill="#FFFFFF" stroke="#82B366" stroke-width="1.3"/>
<text x="72.0" y="73.5" font-size="10" text-anchor="middle" fill="#222">Webhook:</text>
<text x="72.0" y="85.5" font-size="10" text-anchor="middle" fill="#222">batch</text>
<text x="72.0" y="97.5" font-size="10" text-anchor="middle" fill="#222">completed</text>
<rect x="140" y="160" width="160" height="66" rx="8" fill="#D5E8D4" stroke="#82B366" stroke-width="1.3"/>
<text x="220.0" y="184.5" font-size="10" text-anchor="middle" fill="#222">Ingest: verify HMAC,</text>
<text x="220.0" y="196.5" font-size="10" text-anchor="middle" fill="#222">idempotency, load</text>
<text x="220.0" y="208.5" font-size="10" text-anchor="middle" fill="#222">raw_gateway_settlements</text>
<rect x="340" y="160" width="140" height="66" rx="8" fill="#D5E8D4" stroke="#82B366" stroke-width="1.3"/>
<text x="410.0" y="190.5" font-size="10" text-anchor="middle" fill="#222">Run reconciliation</text>
<text x="410.0" y="202.5" font-size="10" text-anchor="middle" fill="#222">(CTE + window SQL)</text>
<rect x="520" y="160" width="150" height="66" rx="8" fill="#D5E8D4" stroke="#82B366" stroke-width="1.3"/>
<text x="595.0" y="184.5" font-size="10" text-anchor="middle" fill="#222">Threshold match:</text>
<text x="595.0" y="196.5" font-size="10" text-anchor="middle" fill="#222">tolerance AED 0.50,</text>
<text x="595.0" y="208.5" font-size="10" text-anchor="middle" fill="#222">fee within schedule</text>
<polygon points="755.0,160 800,193.0 755.0,226 710,193.0" fill="#FFF2CC" stroke="#D6B656" stroke-width="1.3"/>
<text x="755.0" y="191.0" font-size="9" text-anchor="middle" fill="#222">Exceptions</text>
<text x="755.0" y="202.0" font-size="9" text-anchor="middle" fill="#222">in batch?</text>
<rect x="840" y="130" width="130" height="56" rx="8" fill="#D5E8D4" stroke="#82B366" stroke-width="1.3"/>
<text x="905.0" y="149.5" font-size="10" text-anchor="middle" fill="#222">ERP API: mark</text>
<text x="905.0" y="161.5" font-size="10" text-anchor="middle" fill="#222">invoices PAID,</text>
<text x="905.0" y="173.5" font-size="10" text-anchor="middle" fill="#222">stamp batch</text>
<ellipse cx="1030.0" cy="158.0" rx="20.0" ry="20.0" fill="#FFFFFF" stroke="#B85450" stroke-width="2.5"/>
<text x="1030.0" y="161.5" font-size="10" text-anchor="middle" fill="#222">End</text>
<rect x="840" y="240" width="130" height="52" rx="8" fill="#D5E8D4" stroke="#82B366" stroke-width="1.3"/>
<text x="905.0" y="263.5" font-size="10" text-anchor="middle" fill="#222">DMN routing by</text>
<text x="905.0" y="275.5" font-size="10" text-anchor="middle" fill="#222">flag and amount</text>
<polygon points="1045.0,233 1090,266.0 1045.0,299 1000,266.0" fill="#FFF2CC" stroke="#D6B656" stroke-width="1.3"/>
<text x="1045.0" y="258.5" font-size="9" text-anchor="middle" fill="#222">Variance</text>
<text x="1045.0" y="269.5" font-size="9" text-anchor="middle" fill="#222">&gt; AED</text>
<text x="1045.0" y="280.5" font-size="9" text-anchor="middle" fill="#222">5,000?</text>
<rect x="1130" y="200" width="140" height="52" rx="8" fill="#D5E8D4" stroke="#82B366" stroke-width="1.3"/>
<text x="1200.0" y="223.5" font-size="10" text-anchor="middle" fill="#222">Auto-resolve per</text>
<text x="1200.0" y="235.5" font-size="10" text-anchor="middle" fill="#222">rule with audit note</text>
<rect x="970" y="400" width="150" height="66" rx="8" fill="#DAE8FC" stroke="#6C8EBF" stroke-width="1.3"/>
<text x="1045.0" y="424.5" font-size="10" text-anchor="middle" fill="#222">Finance Manager</text>
<text x="1045.0" y="436.5" font-size="10" text-anchor="middle" fill="#222">approves in tool</text>
<text x="1045.0" y="448.5" font-size="10" text-anchor="middle" fill="#222">(SLA 4 working h)</text>
<rect x="1330" y="505" width="150" height="60" rx="8" fill="#D5E8D4" stroke="#82B366" stroke-width="1.3"/>
<text x="1405.0" y="526.5" font-size="10" text-anchor="middle" fill="#222">ERP API posts</text>
<text x="1405.0" y="538.5" font-size="10" text-anchor="middle" fill="#222">journal, linked to</text>
<text x="1405.0" y="550.5" font-size="10" text-anchor="middle" fill="#222">exception ID</text>
<ellipse cx="1580.0" cy="535.0" rx="20.0" ry="20.0" fill="#FFFFFF" stroke="#B85450" stroke-width="2.5"/>
<text x="1580.0" y="538.5" font-size="10" text-anchor="middle" fill="#222">End</text>
<rect x="140" y="50" width="160" height="60" rx="8" fill="#F8CECC" stroke="#B85450" stroke-width="1.3"/>
<text x="220.0" y="71.5" font-size="10" text-anchor="middle" fill="#222">Dead-letter queue</text>
<text x="220.0" y="83.5" font-size="10" text-anchor="middle" fill="#222">+ alert; poll</text>
<text x="220.0" y="95.5" font-size="10" text-anchor="middle" fill="#222">fallback every 15 min</text>
</svg>