<svg xmlns="http://www.w3.org/2000/svg" width="1500" height="560" viewBox="0 0 1500 560" font-family="Arial, Helvetica, sans-serif">
<defs><marker id="ar" viewBox="0 0 10 10" refX="9" refY="5" markerWidth="7" markerHeight="7" orient="auto-start-reverse"><path d="M0 0L10 5L0 10z" fill="#444"/></marker></defs>
<rect width="1500" height="560" fill="#fff"/>
<text x="14" y="22" font-size="15" font-weight="bold" fill="#1F3A5F">Mizan - As-Is Reconciliation Process (BPMN 2.0, manual)</text>
<rect x="0" y="40" width="1500" height="190" fill="#FAFAFA" stroke="#999"/>
<rect x="0" y="40" width="26" height="190" fill="#E8EEF5" stroke="#999"/>
<text transform="translate(17,135.0) rotate(-90)" text-anchor="middle" font-size="11" font-weight="bold" fill="#1F3A5F">Finance Analyst</text>
<rect x="0" y="230" width="1500" height="130" fill="#FAFAFA" stroke="#999"/>
<rect x="0" y="230" width="26" height="130" fill="#E8EEF5" stroke="#999"/>
<text transform="translate(17,295.0) rotate(-90)" text-anchor="middle" font-size="11" font-weight="bold" fill="#1F3A5F">Finance Manager</text>
<rect x="0" y="360" width="1500" height="90" fill="#FAFAFA" stroke="#999"/>
<rect x="0" y="360" width="26" height="90" fill="#E8EEF5" stroke="#999"/>
<text transform="translate(17,405.0) rotate(-90)" text-anchor="middle" font-size="11" font-weight="bold" fill="#1F3A5F">Portals</text>
<rect x="0" y="450" width="1500" height="100" fill="#FAFAFA" stroke="#999"/>
<rect x="0" y="450" width="26" height="100" fill="#E8EEF5" stroke="#999"/>
<text transform="translate(17,500.0) rotate(-90)" text-anchor="middle" font-size="11" font-weight="bold" fill="#1F3A5F">ERP (Ledger)</text>
<polyline points="104,127 130,127" fill="none" stroke="#444" stroke-width="1.3"  marker-end="url(#ar)"/>
<polyline points="280,127 330,127" fill="none" stroke="#444" stroke-width="1.3"  marker-end="url(#ar)"/>
<polyline points="480,127 530,127" fill="none" stroke="#444" stroke-width="1.3"  marker-end="url(#ar)"/>
<polyline points="610,127 660,127" fill="none" stroke="#444" stroke-width="1.3"  marker-end="url(#ar)"/>
<rect x="627" y="114" width="22" height="13" fill="#ffffff"/>
<text x="638" y="124" font-size="9.5" fill="#B85450" text-anchor="middle" font-weight="bold">yes</text>
<polyline points="790,127 840,127" fill="none" stroke="#444" stroke-width="1.3"  marker-end="url(#ar)"/>
<polyline points="570,162 570,201 660,201" fill="none" stroke="#444" stroke-width="1.3"  marker-end="url(#ar)"/>
<rect x="562" y="177" width="17" height="13" fill="#ffffff"/>
<text x="570" y="187" font-size="9.5" fill="#B85450" text-anchor="middle" font-weight="bold">no</text>
<polyline points="800,201 905,201 905,262" fill="none" stroke="#444" stroke-width="1.3"  marker-end="url(#ar)"/>
<polyline points="980,299 1115,299 1115,470" fill="none" stroke="#444" stroke-width="1.3"  marker-end="url(#ar)"/>
<polyline points="1190,507 1260,507" fill="none" stroke="#444" stroke-width="1.3"  marker-end="url(#ar)"/>
<polyline points="205,164 205,375" fill="none" stroke="#444" stroke-width="1.3" stroke-dasharray="5 4" marker-end="url(#ar)"/>
<ellipse cx="77.0" cy="127.0" rx="27.0" ry="27.0" fill="#FFFFFF" stroke="#82B366" stroke-width="1.3"/>
<text x="77.0" y="118.5" font-size="10" text-anchor="middle" fill="#222">Daily</text>
<text x="77.0" y="130.5" font-size="10" text-anchor="middle" fill="#222">09:00</text>
<text x="77.0" y="142.5" font-size="10" text-anchor="middle" fill="#222">GST</text>
<rect x="130" y="90" width="150" height="74" rx="8" fill="#F8CECC" stroke="#B85450" stroke-width="1.3"/>
<text x="205.0" y="118.5" font-size="10" text-anchor="middle" fill="#222">H1: Log in to gateway</text>
<text x="205.0" y="130.5" font-size="10" text-anchor="middle" fill="#222">and bank portals,</text>
<text x="205.0" y="142.5" font-size="10" text-anchor="middle" fill="#222">download CSV / MT940</text>
<rect x="150" y="375" width="110" height="50" fill="#E1D5E7" stroke="#9673A6" stroke-width="1.3"/>
<text x="205.0" y="397.5" font-size="10" text-anchor="middle" fill="#222">Statement</text>
<text x="205.0" y="409.5" font-size="10" text-anchor="middle" fill="#222">files</text>
<rect x="330" y="90" width="150" height="74" rx="8" fill="#F8CECC" stroke="#B85450" stroke-width="1.3"/>
<text x="405.0" y="118.5" font-size="10" text-anchor="middle" fill="#222">H2: Paste into Excel,</text>
<text x="405.0" y="130.5" font-size="10" text-anchor="middle" fill="#222">VLOOKUP on ref vs</text>
<text x="405.0" y="142.5" font-size="10" text-anchor="middle" fill="#222">ledger export</text>
<polygon points="570.0,92 610,127.0 570.0,162 530,127.0" fill="#FFF2CC" stroke="#D6B656" stroke-width="1.3"/>
<text x="570.0" y="125.0" font-size="9" text-anchor="middle" fill="#222">All lines</text>
<text x="570.0" y="136.0" font-size="9" text-anchor="middle" fill="#222">matched?</text>
<rect x="660" y="99" width="130" height="56" rx="8" fill="#DAE8FC" stroke="#6C8EBF" stroke-width="1.3"/>
<text x="725.0" y="118.5" font-size="10" text-anchor="middle" fill="#222">Mark batch</text>
<text x="725.0" y="130.5" font-size="10" text-anchor="middle" fill="#222">reconciled in</text>
<text x="725.0" y="142.5" font-size="10" text-anchor="middle" fill="#222">tracker sheet</text>
<ellipse cx="860.0" cy="127.0" rx="20.0" ry="20.0" fill="#FFFFFF" stroke="#B85450" stroke-width="2.5"/>
<text x="860.0" y="130.5" font-size="10" text-anchor="middle" fill="#222">End</text>
<rect x="660" y="175" width="140" height="52" rx="8" fill="#DAE8FC" stroke="#6C8EBF" stroke-width="1.3"/>
<text x="730.0" y="192.5" font-size="10" text-anchor="middle" fill="#222">Compile exception</text>
<text x="730.0" y="204.5" font-size="10" text-anchor="middle" fill="#222">list and email</text>
<text x="730.0" y="216.5" font-size="10" text-anchor="middle" fill="#222">to manager</text>
<rect x="830" y="262" width="150" height="74" rx="8" fill="#F8CECC" stroke="#B85450" stroke-width="1.3"/>
<text x="905.0" y="290.5" font-size="10" text-anchor="middle" fill="#222">H3: Read email,</text>
<text x="905.0" y="302.5" font-size="10" text-anchor="middle" fill="#222">reply "approved"</text>
<text x="905.0" y="314.5" font-size="10" text-anchor="middle" fill="#222">(no record)</text>
<rect x="1040" y="470" width="150" height="74" rx="8" fill="#F8CECC" stroke="#B85450" stroke-width="1.3"/>
<text x="1115.0" y="498.5" font-size="10" text-anchor="middle" fill="#222">H4: Key manual</text>
<text x="1115.0" y="510.5" font-size="10" text-anchor="middle" fill="#222">journal in ERP</text>
<text x="1115.0" y="522.5" font-size="10" text-anchor="middle" fill="#222">per exception</text>
<ellipse cx="1280.0" cy="507.0" rx="20.0" ry="20.0" fill="#FFFFFF" stroke="#B85450" stroke-width="2.5"/>
<text x="1280.0" y="510.5" font-size="10" text-anchor="middle" fill="#222">End</text>
<rect x="1010" y="60" width="440" height="64" fill="#FFFFFF" stroke="#999999" stroke-width="1.3"/>
<text x="1230.0" y="89.5" font-size="10" text-anchor="middle" fill="#222">Defects: shared credentials, no tolerance logic, exact-match only,</text>
<text x="1230.0" y="101.5" font-size="10" text-anchor="middle" fill="#222">no timezone handling, approval not queryable, journal not linked to break</text>
</svg>